<?xml version="1.0" encoding="utf-8"?>
<!-- Generator: Adobe Illustrator 15.0.0, SVG Export Plug-In . SVG Version: 6.00 Build 0)  -->
<!DOCTYPE svg PUBLIC "-//W3C//DTD SVG 1.1//EN" "http://www.w3.org/Graphics/SVG/1.1/DTD/svg11.dtd">
<svg version="1.1" id="Layer_1" xmlns="http://www.w3.org/2000/svg" xmlns:xlink="http://www.w3.org/1999/xlink"
	  preserveAspectRatio='xMinYMin meet' xml:space="preserve">
<circle fill="#231F20" cx="12.831" cy="35.255" r="1.499"/>
<circle fill="#231F20" cx="16.614" cy="34.843" r="0.813"/>
<circle fill="#231F20" cx="20.674" cy="35.022" r="1.536"/>
<circle fill="#231F20" cx="25" cy="34.612" r="0.857"/>
<circle fill="#231F20" cx="29.057" cy="35.685" r="1.929"/>
<circle fill="#231F20" cx="32.842" cy="34.984" r="1.229"/>
<circle fill="#231F20" cx="37.033" cy="35.391" r="1.634"/>
<circle fill="#231F20" cx="14.86" cy="31.464" r="1.499"/>
<circle fill="#231F20" cx="18.375" cy="32.004" r="0.959"/>
<circle fill="#231F20" cx="22.634" cy="31.801" r="1.161"/>
<circle fill="#231F20" cx="26.623" cy="31.059" r="1.094"/>
<circle fill="#231F20" cx="30.818" cy="31.464" r="1.765"/>
<circle fill="#231F20" cx="35.141" cy="30.525" r="0.562"/>
<circle fill="#231F20" cx="16.888" cy="26.905" r="0.733"/>
<circle fill="#231F20" cx="20.757" cy="28.045" r="1.872"/>
<circle fill="#231F20" cx="25" cy="27.186" r="1.013"/>
<circle fill="#231F20" cx="29.057" cy="27.885" r="1.712"/>
<circle fill="#231F20" cx="33.111" cy="27.139" r="0.966"/>
<circle fill="#231F20" cx="18.916" cy="23.88" r="1.499"/>
<circle fill="#231F20" cx="22.282" cy="23.88" r="0.809"/>
<circle fill="#231F20" cx="27.027" cy="23.146" r="0.764"/>
<circle fill="#231F20" cx="30.727" cy="23.88" r="1.856"/>
<circle fill="#231F20" cx="20.944" cy="19.479" r="0.888"/>
<circle fill="#231F20" cx="25" cy="20.41" r="1.821"/>
<circle fill="#231F20" cx="29.057" cy="19.669" r="1.079"/>
<circle fill="#231F20" cx="22.972" cy="16.091" r="1.293"/>
<circle fill="#231F20" cx="26.641" cy="16.297" r="1.112"/>
<circle fill="#231F20" cx="25" cy="12.943" r="1.061"/>
<polygon fill="#231F20" points="23.026,44 27.539,44 25.282,37.548 "/>
<polygon fill="#231F20" points="23.66,10.427 24.77,9.844 25.879,10.427 25.667,9.191 26.564,8.316 25.324,8.136 24.77,7.012 
	24.215,8.136 22.974,8.316 23.872,9.191 "/>
<polygon fill="#231F20" points="21.454,11.301 20.746,11.403 21.258,11.902 21.137,12.607 21.77,12.274 22.403,12.607 
	22.282,11.902 22.794,11.403 22.086,11.301 21.77,10.66 "/>
<polygon fill="#231F20" points="20.95,7.136 21.319,6.942 21.688,7.136 21.618,6.725 21.917,6.434 21.504,6.374 21.319,6 
	21.135,6.374 20.722,6.434 21.021,6.725 "/>
</svg>
